<?xml version="1.0" standalone="no"?>
<!DOCTYPE svg PUBLIC "-//W3C//DTD SVG 1.0//EN" "http://www.w3.org/TR/2001/REC-SVG-20010904/DTD/svg10.dtd">
<svg xmlns="http://www.w3.org/2000/svg" xmlns:xlink="http://www.w3.org/1999/xlink" id="body_1" width="1024" height="768">

<g transform="matrix(32 0 0 32 128 -0)">
	<g>
        <path d="M21 7.337L17.07 7.337L17.442 3.065C 17.477999 2.653 17.171999 2.29 16.76 2.253C 16.343 2.223 15.984 2.523 15.948 2.936L15.948 2.936L15.565 7.3360004L9.244999 7.3360004L9.614999 3.0660005C 9.6519985 2.6530004 9.344998 2.2900004 8.9349985 2.2530005C 8.514998 2.2230005 8.157998 2.5230005 8.121999 2.9360006L8.121999 2.9360006L7.739999 7.3360004L3.782 7.3360004C 3.368 7.3360004 3.032 7.6730003 3.032 8.086C 3.032 8.499001 3.368 8.836 3.782 8.836L3.782 8.836L7.61 8.836L7.06 15.163L3 15.163C 2.586 15.163 2.25 15.499001 2.25 15.913C 2.25 16.327 2.586 16.663 3 16.663L3 16.663L6.9300003 16.663L6.558 20.935C 6.5220003 21.347 6.828 21.71 7.2400002 21.747L7.2400002 21.747L7.306 21.75C 7.691 21.75 8.018001 21.455 8.052 21.064L8.052 21.064L8.435 16.664L14.755001 16.664L14.385001 20.934C 14.349001 21.347 14.655002 21.71 15.067001 21.747L15.067001 21.747L15.133001 21.75C 15.518002 21.75 15.845001 21.455 15.879002 21.064L15.879002 21.064L16.261002 16.664L20.218002 16.664C 20.631002 16.664 20.968002 16.327 20.968002 15.914C 20.968002 15.500999 20.631002 15.164 20.218002 15.164L20.218002 15.164L16.39 15.164L16.939999 8.837L21 8.837C 21.414 8.837 21.75 8.500999 21.75 8.087C 21.75 7.6730003 21.414 7.337 21 7.337zM14.885 15.163L8.565001 15.163L9.115001 8.837L15.435001 8.837L14.885001 15.163z" stroke="none" fill="#000000" fill-rule="nonzero" />
	</g>
</g>
</svg>