<?xml version="1.0" standalone="no"?>
<!DOCTYPE svg PUBLIC "-//W3C//DTD SVG 1.0//EN" "http://www.w3.org/TR/2001/REC-SVG-20010904/DTD/svg10.dtd">
<svg xmlns="http://www.w3.org/2000/svg" xmlns:xlink="http://www.w3.org/1999/xlink" id="body_1" width="1024" height="768">

<g transform="matrix(1 0 0 1 0 0)">
	<g transform="matrix(32 0 0 32 128 -0)">
		<g>
            <path d="M22.58 7.35L12.475 1.897C 12.178 1.737 11.821 1.737 11.525001 1.897L11.525001 1.897L1.425 7.35C 0.93899995 7.614 0.75799996 8.22 1.02 8.705999C 1.2 9.040999 1.545 9.230999 1.9 9.230999C 2.06 9.230999 2.224 9.192999 2.375 9.110999L2.375 9.110999L3.109 8.714999L4.699 19.965C 4.915 21.179 6.009 22.027 7.359 22.027L7.359 22.027L16.640999 22.027C 17.991 22.027 19.085 21.179 19.303 19.939001L19.303 19.939001L20.890999 8.714001L21.627998 9.112C 22.112999 9.375 22.719997 9.194 22.981998 8.708C 23.244999 8.222 23.061998 7.6150002 22.578 7.353L22.578 7.353L22.58 7.35zM12 15.435C 10.205 15.435 8.75 13.9800005 8.75 12.185C 8.75 10.39 10.205 8.935 12 8.935C 13.795 8.935 15.25 10.39 15.25 12.185C 15.25 13.9800005 13.795 15.435 12 15.435z" stroke="none" fill="#000000" fill-rule="nonzero" />
		</g>
	</g>
</g>
</svg>