<?xml version="1.0" standalone="no"?>
<!DOCTYPE svg PUBLIC "-//W3C//DTD SVG 1.0//EN" "http://www.w3.org/TR/2001/REC-SVG-20010904/DTD/svg10.dtd">
<svg xmlns="http://www.w3.org/2000/svg" xmlns:xlink="http://www.w3.org/1999/xlink" id="body_1" width="1024" height="768">

<g transform="matrix(1 0 0 1 0 0)">
	<g transform="matrix(32 0 0 32 128 -0)">
		<g>
            <path d="M19.25 3.018L4.75 3.018C 3.233 3.018 2 4.252 2 5.77L2 5.77L2 18.265C 2 19.782999 3.233 21.018 4.75 21.018L4.75 21.018L19.25 21.018C 20.767 21.018 22 19.782999 22 18.265L22 18.265L22 5.77C 22 4.252 20.767 3.018 19.25 3.018zM4.75 4.5179996L19.25 4.5179996C 19.94 4.5179996 20.5 5.0779996 20.5 5.7679996L20.5 5.7679996L20.5 6.4819994L12.45 11.848999C 12.177 12.028999 11.823999 12.030999 11.55 11.846999L11.55 11.846999L3.5 6.482L3.5 5.7679996C 3.5 5.0779996 4.06 4.5179996 4.75 4.5179996zM19.25 19.515999L4.75 19.515999C 4.06 19.515999 3.5 18.956 3.5 18.265999L3.5 18.265999L3.5 8.24L10.74 13.07C 11.123 13.325999 11.562 13.4539995 12 13.4539995C 12.44 13.4539995 12.877 13.325999 13.26 13.070999L13.26 13.070999L20.5 8.240999L20.5 18.263C 20.5 18.953001 19.94 19.513 19.25 19.513z" stroke="none" fill="#000000" fill-rule="nonzero" />
		</g>
	</g>
</g>
</svg>