<?xml version="1.0" standalone="no"?>
<!DOCTYPE svg PUBLIC "-//W3C//DTD SVG 1.0//EN" "http://www.w3.org/TR/2001/REC-SVG-20010904/DTD/svg10.dtd">
<svg xmlns="http://www.w3.org/2000/svg" xmlns:xlink="http://www.w3.org/1999/xlink" id="body_1" width="1024" height="768">

<g transform="matrix(32 0 0 32 128 -0)">
	<g>
        <path d="M16.5 10.25C 15.535 10.25 14.75 11.037 14.75 12C 14.75 12.963 15.534 13.75 16.5 13.75C 17.464 13.75 18.25 12.964 18.25 12C 18.25 11.036 17.464 10.25 16.5 10.25zM16.5 12.75C 16.086 12.75 15.75 12.414 15.75 12C 15.75 11.587 16.087 11.25 16.5 11.25C 16.913 11.25 17.25 11.586 17.25 12C 17.25 12.413 16.914 12.75 16.5 12.75zM12 10.25C 11.034 10.25 10.25 11.037 10.25 12C 10.25 12.963 11.035 13.75 12 13.75C 12.965 13.75 13.75 12.964 13.75 12C 13.75 11.036 12.966 10.25 12 10.25zM12 12.75C 11.586 12.75 11.25 12.414 11.25 12C 11.25 11.587 11.587 11.25 12 11.25C 12.413 11.25 12.75 11.586 12.75 12C 12.75 12.413 12.414 12.75 12 12.75zM7.5 10.25C 6.535 10.25 5.75 11.037 5.75 12C 5.75 12.963 6.535 13.75 7.5 13.75C 8.464 13.75 9.25 12.964 9.25 12C 9.25 11.036 8.463 10.25 7.5 10.25zM7.5 12.75C 7.086 12.75 6.75 12.414 6.75 12C 6.75 11.587 7.087 11.25 7.5 11.25C 7.913 11.25 8.25 11.586 8.25 12C 8.25 12.413 7.914 12.75 7.5 12.75z" stroke="none" fill="#000000" fill-rule="nonzero" />
        <path d="M12 22.75C 6.072 22.75 1.25 17.928 1.25 12C 1.25 6.0720005 6.072 1.25 12 1.25C 17.928 1.25 22.75 6.072 22.75 12C 22.75 17.928 17.928 22.75 12 22.75zM12 2.75C 6.9 2.75 2.75 6.9 2.75 12C 2.75 17.1 6.9 21.25 12 21.25C 17.1 21.25 21.25 17.1 21.25 12C 21.25 6.8999996 17.1 2.75 12 2.75z" stroke="none" fill="#000000" fill-rule="nonzero" />
	</g>
</g>
</svg>