<?xml version="1.0" standalone="no"?>
<!DOCTYPE svg PUBLIC "-//W3C//DTD SVG 1.0//EN" "http://www.w3.org/TR/2001/REC-SVG-20010904/DTD/svg10.dtd">
<svg xmlns="http://www.w3.org/2000/svg" xmlns:xlink="http://www.w3.org/1999/xlink" id="body_1" width="1024" height="768">

<g transform="matrix(32 0 0 32 128 -0)">
	<g>
        <path d="M21.697 16.468C 21.677 16.452 19.557001 14.828 19.594 10.438C 19.614 7.9059997 18.782 5.6559997 17.247 4.1029997C 15.872 2.71 14.01 1.94 12.005 1.93L12.005 1.93L11.992001 1.93C 9.988001 1.9399999 8.126 2.71 6.7500005 4.104C 5.2160006 5.657 4.3820004 7.906 4.4040003 10.438C 4.4410005 14.768 2.3840003 16.404999 2.3020003 16.468C 2.0420003 16.661001 1.9360003 16.998001 2.0370002 17.306C 2.1390002 17.614 2.427 17.821 2.749 17.821L2.749 17.821L7.669 17.821C 7.771 20.130999 9.666 21.980999 11.999001 21.980999C 14.332001 21.980999 16.225 20.130999 16.326 17.821L16.326 17.821L21.248001 17.821C 21.570002 17.821 21.858002 17.615 21.958 17.307C 22.061 17 21.955 16.661999 21.695 16.469L21.695 16.469L21.697 16.468zM12 20.478C 10.495 20.478 9.27 19.301 9.172 17.82L9.172 17.82L14.828 17.82C 14.728 19.3 13.505 20.48 12 20.48zM4.38 16.32C 5.12 15.188 5.928 13.292 5.9040003 10.424C 5.886 8.264 6.5480003 6.4419994 7.8170004 5.1569996C 8.91 4.05 10.397 3.437 12 3.43C 13.603 3.438 15.087 4.05 16.18 5.158C 17.45 6.443 18.113 8.264 18.095001 10.425C 18.071001 13.293 18.880001 15.190001 19.62 16.321L19.62 16.321L4.38 16.321z" stroke="none" fill="#000000" fill-rule="nonzero" />
	</g>
</g>
</svg>