<?xml version="1.0" standalone="no"?>
<!DOCTYPE svg PUBLIC "-//W3C//DTD SVG 1.0//EN" "http://www.w3.org/TR/2001/REC-SVG-20010904/DTD/svg10.dtd">
<svg xmlns="http://www.w3.org/2000/svg" xmlns:xlink="http://www.w3.org/1999/xlink" id="body_1" width="1024" height="768">

<g transform="matrix(32 0 0 32 128 -0)">
	<g>
        <path d="M12 11.816C 13.355 11.816 14.872 11.666 15.84 10.559999C 16.654 9.629999 16.918 8.191999 16.646 6.1679993C 16.266 3.3429992 14.528999 1.6559992 12 1.6559992C 9.471001 1.6559992 7.734 3.343 7.354 6.17C 7.0820003 8.192 7.346 9.63 8.16 10.559999C 9.128 11.667 10.6449995 11.816 12 11.816zM8.84 6.368C 9.002 5.168 9.627 3.1560001 12 3.1560001C 14.373 3.1560001 14.998 5.169 15.16 6.368C 15.367 7.918 15.217 8.995 14.71 9.573C 14.255 10.093 13.444 10.316 12 10.316C 10.556 10.316 9.745 10.093 9.29 9.573C 8.783 8.995 8.633 7.917 8.84 6.368zM20.279999 19.236C 19.402998 15.71 15.997999 13.246 11.999999 13.246C 8.001999 13.246 4.596999 15.71 3.7199993 19.236C 3.5479994 19.928 3.6919992 20.636 4.1149993 21.176C 4.5229993 21.696001 5.1549993 21.996 5.8479996 21.996L5.8479996 21.996L18.152 21.996C 18.845001 21.996 19.477001 21.696001 19.885 21.176C 20.309 20.636 20.452 19.929 20.279 19.236zM18.703999 20.252C 18.578 20.412 18.387999 20.498001 18.151999 20.498001L18.151999 20.498001L5.848 20.498001C 5.613 20.498001 5.422 20.413002 5.296 20.252C 5.159 20.078001 5.116 19.84 5.176 19.598001C 5.886 16.743002 8.693 14.748001 12 14.748001C 15.307 14.748001 18.114 16.742 18.824 19.598001C 18.883999 19.840002 18.841 20.078001 18.703999 20.252z" stroke="none" fill="#000000" fill-rule="nonzero" />
	</g>
</g>
</svg>